<svg width="939" height="860" viewBox="0 0 939 860" fill="none" xmlns="http://www.w3.org/2000/svg">
<path d="M697.85 537.1C699.27 537.1 700.15 538.64 699.44 539.86L682.76 568.51C682.43 569.08 681.82 569.43 681.17 569.42L648.19 569.35C646.77 569.35 645.89 567.81 646.6 566.59L657.66 547.59L612.53 465.39L514.94 633.79C510.77 640.99 515.96 650.01 524.29 650.01L722.06 650.05C725.91 650.05 729.48 648 731.41 644.66L831.09 472.66C835.26 465.46 830.07 456.44 821.74 456.44L632.13 456.4L676.4 537.05" fill="#FECB33"/>
<path d="M348.68 687.2C347.96 688.43 346.17 688.42 345.47 687.18L329.11 658.38C328.78 657.81 328.79 657.1 329.12 656.53L331.84 651.89L239.93 651.04C235.91 651 232.17 653.05 230.12 656.42L123.87 830.94C119.45 838.21 124.79 847.41 133.48 847.49L347.91 848.87C351.93 848.91 345.22 846.95 347.26 843.59L457.06 669.75L360.28 667.38" fill="#FECB33"/>
<path d="M308.62 446.329L111.05 446.289C107.16 446.289 103.57 448.359 101.62 451.719L2.03966 623.549C-2.17034 630.809 3.06964 639.899 11.4596 639.899L209.03 639.939C212.92 639.939 216.51 637.869 218.46 634.509L318.04 462.679C322.25 455.419 317.01 446.329 308.62 446.329Z" fill="#FECB33"/>
<path d="M348.68 687.2C347.96 688.43 346.17 688.42 345.47 687.18L329.11 658.38C328.78 657.81 328.79 657.1 329.12 656.53L345.75 628.09C346.47 626.86 348.26 626.87 348.96 628.11L359.02 645.82L458.13 648.25L357.22 472.05C352.91 464.52 342.06 464.49 337.71 472L233.72 651.25C231.7 654.72 231.69 659.01 233.69 662.49L337.21 843.25C341.52 850.78 352.37 850.81 356.72 843.3L457.4 669.75L360.27 667.37" fill="#EAA536"/>
<path d="M376.46 405.079L571.57 405.089C575.49 405.079 579.12 403.029 581.1 399.689L683.68 227.179C687.95 219.999 682.59 211.019 674.04 211.039L469.65 211.459C465.73 211.469 462.1 213.519 460.12 216.859L417.09 290.379L425.1 290.399C425.76 290.399 426.37 290.759 426.7 291.329L443.19 319.969C443.9 321.209 443.01 322.749 441.58 322.749L421.38 322.699" fill="#EAA536"/>
<path d="M376.46 405.079L567.92 405.22C576.41 405.23 581.71 396.04 577.46 388.69L478.18 217C476.21 213.6 472.58 211.5 468.65 211.5L269.3 211.35C260.81 211.34 255.51 220.53 259.76 227.88L356.94 395.94L401.96 313.37L390.27 293.08C389.56 291.84 390.45 290.3 391.88 290.3L425.1 290.38C425.76 290.38 426.37 290.74 426.7 291.31L443.19 319.95C443.9 321.19 443.01 322.73 441.58 322.73L421.38 322.68" fill="#FECB33"/>
<path d="M358.32 5.42999L258.74 177.26C254.53 184.52 259.77 193.61 268.16 193.61L465.73 193.65C469.62 193.65 473.21 191.58 475.16 188.22L574.74 16.39C578.95 9.13001 573.71 0.0400085 565.32 0.0400085L367.75 0C363.86 0 360.27 2.06999 358.32 5.42999Z" fill="#FECB33"/>
<path d="M825.62 859.43C829.51 859.42 833.11 857.39 835.07 854.07L936.83 682.94C941.07 675.81 935.75 666.91 927.27 666.93L724.52 667.35C720.63 667.36 717.03 669.39 715.07 672.71L615.32 843.25C611.08 850.38 615.75 859.44 624.24 859.42L825.62 859.43Z" fill="#EAA536"/>
<path d="M831.46 843.17L732.97 672.85C731.02 669.47 727.42 667.4 723.52 667.39L525.76 667.24C517.34 667.23 512.08 676.35 516.29 683.64L614.78 853.96C616.73 857.34 620.33 859.41 624.23 859.42L821.99 859.57C830.41 859.58 835.68 850.46 831.46 843.17Z" fill="#FECB33"/>
</svg>
